{"title":"Sons.of.Anarchy.S05E04.720p.WEB-DL.DD5.1.H.264-CtrlHD","uid":7715433,"size":1568338740,"categoryP":"video","categoryS":"hd___tv_shows","magnet":"?xt=urn:btih:c084e5d0275abaf15ea9f8737af4e621387052d5&amp;dn=Sons.of.Anarchy.S05E04.720p.WEB-DL.DD5.1.H.264-CtrlHD&amp;tr=udp%3A%2F%2Ftracker.openbittorrent.com%3A80&amp;tr=udp%3A%2F%2Fopen.demonii.com%3A1337&amp;tr=udp%3A%2F%2Ftracker.coppersurfer.tk%3A6969&amp;tr=udp%3A%2F%2Fexodus.desync.com%3A6969","seeders":0,"leechers":2,"uploader":"sceneline","files":4,"time":1349917804,"description":"- &lt;a href=&quot;\nhttp://www.Speed.Cd&quot; rel=&quot;nofollow&quot; target=&quot;_NEW&quot;&gt;\nhttp://www.Speed.Cd&lt;/a&gt;\n &lt;a href=&quot;\nhttp://www.Speed.Cd&quot; rel=&quot;nofollow&quot; target=&quot;_NEW&quot;&gt;\nhttp://www.Speed.Cd&lt;/a&gt;       the fast  and The Hottest Private Tracker on the net\n\nPlease Seed back to make the speed Faster!!\n ............ NFO .............\n-Video\n ID : 1\n Format : AVC\n Format/Info : Advanced Video Codec\n Format profile : &lt;a class=&quot;__cf_email__&quot; href=&quot;/cdn-cgi/l/email-protection&quot; data-cfemail=&quot;6d25040a052d215e435c&quot;&gt;[email&amp;#160;protected]&lt;/a&gt;&lt;script cf-hash='f9e31' type=&quot;text/javascript&quot;&gt;\n/* &lt;![CDATA[ */!function(){try{var t=&quot;currentScript&quot;in document?document.currentScript:function(){for(var t=document.getElementsByTagName(&quot;script&quot;),e=t.length;e--;)if(t[e].getAttribute(&quot;cf-hash&quot;))return t[e]}();if(t&amp;&amp;t.previousSibling){var e,r,n,i,c=t.previousSibling,a=c.getAttribute(&quot;data-cfemail&quot;);if(a){for(e=&quot;&quot;,r=parseInt(a.substr(0,2),16),n=2;a.length-n;n+=2)i=parseInt(a.substr(n,2),16)^r,e+=String.fromCharCode(i);e=document.createTextNode(e),c.parentNode.replaceChild(e,c)}}}catch(u){}}();/* ]]&gt; */&lt;/script&gt;\n Format settings, CABAC : No\n Format settings, ReFrames : 2 frames\n Format settings, GOP : N=1\n Codec ID : V_MPEG4/ISO/AVC\n Duration : 45mn 36s\n Bit rate : 4 110 Kbps\n Width : 1 280 pixels\n Height : 718 pixels\n Display aspect ratio : 16:9\n Frame rate : 23.976 fps\n Color space : YUV\n Chroma subsampling : 4:2:0\n Bit depth : 8 bits\n Scan type : Progressive\n Bits/(Pixel*Frame) : 0.187\n Stream size : 1.31 GiB (90%)\n Language : English\n Default : Yes\n Forced : No\n Color primaries : BT.709-5, BT.1361, IEC 61966-2-4, SMPTE RP177\n Transfer characteristics : BT.709-5, BT.1361\n Matrix coefficients : BT.709-5, BT.1361, IEC 61966-2-4 709, SMPTE RP177\n\n Audio\n ID : 2\n Format : AC-3\n Format/Info : Audio Coding 3\n Mode extension : CM (complete main)\n Format settings, Endianness : Big\n Codec ID : A_AC3\n Duration : 45mn 36s\n Bit rate mode : Constant\n Bit rate : 384 Kbps\n Channel(s) : 6 channels\n Channel positions : Front: L C R, Side: L R, LFE\n Sampling rate : 48.0 KHz\n Bit depth : 16 bits\n Compression mode : Lossy\n Stream size : 125 MiB (8%)\n Language : English\n Default : Yes\n Forced : No","torrent":{"xt":"urn:btih:c084e5d0275abaf15ea9f8737af4e621387052d5","amp;dn":"Sons.of.Anarchy.S05E04.720p.WEB-DL.DD5.1.H.264-CtrlHD","amp;tr":["udp%3A%2F%2Ftracker.openbittorrent.com%3A80","udp%3A%2F%2Fopen.demonii.com%3A1337","udp%3A%2F%2Ftracker.coppersurfer.tk%3A6969","udp%3A%2F%2Fexodus.desync.com%3A6969"],"infoHash":"c084e5d0275abaf15ea9f8737af4e621387052d5","infoHashBuffer":{"type":"Buffer","data":[192,132,229,208,39,90,186,241,94,169,248,115,122,244,230,33,56,112,82,213]},"announce":[],"urlList":[]}}